<svg width="13" height="13" viewBox="0 0 13 13" fill="none" xmlns="http://www.w3.org/2000/svg">
<g clip-path="url(#clip0)">
<path d="M6.90793 0H6.09205C5.43217 0 4.89529 0.536859 4.89529 1.19674V1.47276C4.61475 1.56239 4.34218 1.67553 4.08032 1.81104L3.88471 1.61543C3.41095 1.14108 2.65205 1.15499 2.19205 1.61561L1.6154 2.19223C1.15459 2.65253 1.14133 3.41118 1.61555 3.88489L1.81101 4.08035C1.6755 4.3422 1.56239 4.61472 1.47273 4.89531H1.19674C0.536885 4.89531 0 5.43217 0 6.09205V6.90795C0 7.56783 0.536885 8.10469 1.19676 8.10469H1.47276C1.56241 8.38525 1.67553 8.6578 1.81104 8.91965L1.61543 9.11523C1.14149 9.58867 1.15456 10.3474 1.61558 10.8079L2.19228 11.3846C2.65335 11.8463 3.41207 11.8578 3.88492 11.3844L4.08035 11.189C4.3422 11.3245 4.61477 11.4376 4.89531 11.5273V11.8033C4.89531 12.4631 5.43217 13 6.09207 13H6.90795C7.56783 13 8.10469 12.4631 8.10469 11.8033V11.5272C8.38523 11.4376 8.6578 11.3245 8.91965 11.189L9.11526 11.3846C9.58902 11.8589 10.3479 11.845 10.8079 11.3844L11.3846 10.8078C11.8454 10.3475 11.8586 9.58882 11.3844 9.11511L11.189 8.91965C11.3245 8.6578 11.4376 8.38528 11.5272 8.10469H11.8032C12.4631 8.10469 13 7.56783 13 6.90795V6.09205C13 5.43217 12.4631 4.89531 11.8032 4.89531H11.5272C11.4376 4.61475 11.3245 4.3422 11.189 4.08035L11.3846 3.88474C11.8585 3.41131 11.8454 2.65258 11.3844 2.19207L10.8077 1.6154C10.3467 1.1537 9.58793 1.14217 9.11508 1.61555L8.91965 1.81099C8.6578 1.6755 8.38523 1.56236 8.10469 1.47271V1.19669C8.10469 0.53686 7.56783 0 6.90793 0V0ZM4.20766 2.61092C4.57143 2.39578 4.96295 2.23326 5.37134 2.12786C5.53952 2.08447 5.65703 1.93279 5.65703 1.75909V1.19674C5.65703 0.956871 5.85221 0.761719 6.09207 0.761719H6.90795C7.14782 0.761719 7.34299 0.956871 7.34299 1.19674V1.75909C7.34299 1.93279 7.4605 2.08447 7.62869 2.12786C8.03707 2.23326 8.4286 2.39578 8.79237 2.61092C8.94204 2.69943 9.1326 2.67536 9.25557 2.55239L9.6539 2.15404C9.82564 1.98209 10.1014 1.98608 10.269 2.15386L10.846 2.73089C11.0131 2.89781 11.0187 3.17365 10.8462 3.34598L10.4477 3.74448C10.3247 3.86742 10.3006 4.05801 10.3891 4.20766C10.6043 4.5714 10.7668 4.96293 10.8722 5.37134C10.9156 5.53952 11.0673 5.65701 11.2409 5.65701H11.8033C12.0431 5.65701 12.2383 5.85216 12.2383 6.09202V6.90793C12.2383 7.14779 12.0431 7.34294 11.8033 7.34294H11.2409C11.0672 7.34294 10.9156 7.46045 10.8722 7.62861C10.7668 8.03702 10.6042 8.42855 10.3891 8.79229C10.3006 8.94194 10.3247 9.13253 10.4477 9.25547L10.846 9.65382C11.0182 9.82582 11.0137 10.1016 10.8462 10.2689L10.2692 10.8459C10.1019 11.0134 9.82607 11.0183 9.65407 10.8461L9.25559 10.4476C9.13265 10.3246 8.94202 10.3005 8.79239 10.389C8.42862 10.6042 8.0371 10.7667 7.62872 10.8721C7.46053 10.9155 7.34302 11.0672 7.34302 11.2409V11.8033C7.34302 12.0431 7.14784 12.2383 6.90798 12.2383H6.0921C5.85223 12.2383 5.65706 12.0431 5.65706 11.8033V11.2409C5.65706 11.0672 5.53955 10.9155 5.37136 10.8721C4.96298 10.7667 4.57146 10.6042 4.20768 10.3891C4.05798 10.3006 3.86742 10.3247 3.74448 10.4476L3.34615 10.846C3.17441 11.0179 2.89859 11.0139 2.73109 10.8461L2.15404 10.2691C1.98692 10.1022 1.98133 9.82638 2.15389 9.65402L2.55239 9.25552C2.67533 9.13258 2.6994 8.94199 2.61092 8.79234C2.39578 8.4286 2.23328 8.03707 2.12789 7.62866C2.08447 7.46048 1.93279 7.34299 1.75911 7.34299H1.19676C0.956896 7.34297 0.761719 7.14782 0.761719 6.90795V6.09205C0.761719 5.85218 0.956896 5.65703 1.19676 5.65703H1.75909C1.93279 5.65703 2.08444 5.53952 2.12786 5.37136C2.23326 4.96295 2.39578 4.57143 2.61089 4.20768C2.69938 4.05803 2.67531 3.86745 2.55237 3.74451L2.15401 3.34615C1.98181 3.17416 1.98631 2.89842 2.15386 2.73107L2.73086 2.15406C2.89811 1.98659 3.17396 1.98169 3.34595 2.15391L3.74443 2.55242C3.83503 2.64299 4.0235 2.71984 4.20766 2.61092V2.61092Z" fill="white"/>
<path d="M6.50003 3.67149C4.94036 3.67149 3.67151 4.94036 3.67151 6.50001C3.67151 8.05965 4.94036 9.32852 6.50003 9.32852C8.0597 9.32852 9.32855 8.05965 9.32855 6.50001C9.32855 4.94036 8.0597 3.67149 6.50003 3.67149V3.67149ZM6.50003 8.5668C5.36037 8.5668 4.43323 7.63964 4.43323 6.50001C4.43323 5.36037 5.36039 4.43321 6.50003 4.43321C7.63966 4.43321 8.56683 5.36037 8.56683 6.50001C8.56683 7.63964 7.63969 8.5668 6.50003 8.5668V8.5668Z" fill="white"/>
</g>
<defs>
<clipPath id="clip0">
<rect width="13" height="13" transform="matrix(1 0 0 -1 0 13)" fill="white"/>
</clipPath>
</defs>
</svg>
