<svg width="29" height="26" viewBox="0 0 29 26" fill="none" xmlns="http://www.w3.org/2000/svg">
<g clip-path="url(#clip0)">
<path d="M28.513 11.623L26.0631 9.62167V2.98543C26.0631 2.56318 25.6813 2.22082 25.2103 2.22082H19.3131C18.8422 2.22082 18.4603 2.56313 18.4603 2.98543V3.41067L15.5016 0.993638C14.9305 0.527009 14.0693 0.52706 13.4984 0.993587L0.487049 11.6231C0.0296188 11.9968 -0.121555 12.5727 0.101949 13.0901C0.325509 13.6075 0.869826 13.9418 1.48874 13.9418H3.56683V24.5917C3.56683 25.0139 3.94864 25.3563 4.41966 25.3563H11.5515C12.0224 25.3563 12.4043 25.014 12.4043 24.5917V18.1254H16.5958V24.5917C16.5958 25.014 16.9776 25.3563 17.4486 25.3563H24.5801C25.0511 25.3563 25.4329 25.014 25.4329 24.5917V13.9418H27.5114C28.1303 13.9418 28.6747 13.6075 28.8982 13.0901C29.1217 12.5727 28.9705 11.9968 28.513 11.623ZM24.5801 12.4126C24.1091 12.4126 23.7273 12.7549 23.7273 13.1772V23.8271H18.3015V17.3608C18.3015 16.9385 17.9196 16.5962 17.4487 16.5962H11.5515C11.0805 16.5962 10.6986 16.9385 10.6986 17.3608V23.8271H5.27245V13.1772C5.27245 12.755 4.89063 12.4126 4.41961 12.4126H2.05299L14.5001 2.24418L18.7389 5.707C18.9885 5.91094 19.3489 5.9635 19.6578 5.84127C19.9667 5.71888 20.166 5.44456 20.166 5.1418V3.75004H24.3576V9.95937C24.3576 10.1745 24.4586 10.3796 24.636 10.5246L26.9471 12.4126H24.5801Z" fill="#8E2694"/>
</g>
<defs>
<clipPath id="clip0">
<rect width="29" height="26" fill="white"/>
</clipPath>
</defs>
</svg>
