<svg width="16" height="16" viewBox="0 0 16 16" fill="none" xmlns="http://www.w3.org/2000/svg">
<g clip-path="url(#clip0)">
<rect width="16" height="16" fill="white"/>
<path d="M14.0688 12.7329C14.0217 12.7024 13.6678 12.4544 13.3133 11.7043C12.6624 10.3267 12.5258 8.38612 12.5258 7.00078C12.5258 6.99475 12.5257 6.98878 12.5255 6.98278C12.5184 5.15188 11.422 3.57356 9.85314 2.86541V1.78237C9.85314 0.799562 9.05489 0 8.0737 0H7.92623C6.94505 0 6.1468 0.799562 6.1468 1.78237V2.86534C4.57267 3.57578 3.47414 5.16216 3.47414 7.00078C3.47414 8.38612 3.33751 10.3267 2.68661 11.7043C2.3322 12.4544 1.97823 12.7023 1.93117 12.7329C1.73298 12.8246 1.63526 13.0365 1.68086 13.2512C1.72689 13.4681 1.92958 13.6176 2.15092 13.6176H5.58676C5.60595 14.9345 6.68076 16 7.99998 16C9.3192 16 10.394 14.9345 10.4132 13.6176H13.849C14.0704 13.6176 14.2731 13.4681 14.3191 13.2512C14.3646 13.0365 14.267 12.8246 14.0688 12.7329V12.7329ZM7.08433 1.78237C7.08433 1.31734 7.46201 0.939031 7.92626 0.939031H8.07373C8.53798 0.939031 8.91567 1.31734 8.91567 1.78237V2.56103C8.6198 2.49988 8.31351 2.46769 7.99986 2.46769C7.6863 2.46769 7.38011 2.49984 7.08436 2.56094V1.78237H7.08433ZM7.99998 15.061C7.1977 15.061 6.5433 14.4167 6.52426 13.6176H9.47567C9.45667 14.4167 8.80226 15.061 7.99998 15.061V15.061ZM9.88748 12.6785C9.88739 12.6785 3.2192 12.6785 3.2192 12.6785C3.3003 12.5521 3.38283 12.409 3.46486 12.2473C4.09311 11.0085 4.41167 9.24328 4.41167 7.00078C4.41167 5.019 6.02133 3.40672 7.99983 3.40672C9.97833 3.40672 11.588 5.019 11.588 7.00234C11.588 7.00812 11.5881 7.01388 11.5883 7.01963C11.5901 9.25313 11.9086 11.012 12.5351 12.2473C12.6171 12.4091 12.6997 12.5521 12.7808 12.6785H9.88748Z" fill="#BEBEBF"/>
</g>
<defs>
<clipPath id="clip0">
<rect width="16" height="16" fill="white"/>
</clipPath>
</defs>
</svg>
