<svg width="16" height="16" viewBox="0 0 16 16" fill="none" xmlns="http://www.w3.org/2000/svg">
<path d="M14.6704 12.1037L12.1229 10.8301C11.8827 10.7099 11.7333 10.4683 11.7333 10.1995V9.29787C11.7944 9.2232 11.8587 9.13814 11.9251 9.04427C12.2555 8.5776 12.5203 8.05814 12.7128 7.49787C13.0891 7.32534 13.3333 6.95334 13.3333 6.53334V5.46667C13.3333 5.20987 13.2373 4.96107 13.0667 4.76667V3.34827C13.0816 3.2016 13.1403 2.32854 12.5088 1.60827C11.9611 0.983472 11.0723 0.666672 9.86667 0.666672C8.66107 0.666672 7.77227 0.983472 7.22453 1.60801C6.84187 2.04454 6.71307 2.53627 6.67413 2.88934C6.21707 2.65307 5.6784 2.53334 5.06667 2.53334C2.29627 2.53334 2.13493 4.89467 2.13333 4.93334V6.1544C1.96053 6.34267 1.86667 6.56 1.86667 6.77574V7.6968C1.86667 7.98454 1.99547 8.2528 2.21627 8.43414C2.43627 9.26347 2.97733 9.89014 3.188 10.1101V10.8416C3.188 11.0515 3.07387 11.244 2.87573 11.3523L1.1016 12.4651C0.422133 12.8357 0 13.5469 0 14.3208V15.3333H3.73333H4.26667H16V14.2552C16 13.3384 15.4904 12.5139 14.6704 12.1037ZM3.73333 14.2032V14.8H0.533333V14.3208C0.533333 13.7421 0.849067 13.2104 1.37093 12.9253L3.1448 11.8125C3.50027 11.6187 3.72107 11.2469 3.72107 10.8416V9.884L3.63627 9.8048C3.62933 9.7984 2.9208 9.12907 2.71147 8.2168L2.6872 8.1112L2.596 8.05254C2.47333 7.97307 2.4 7.84 2.4 7.6968V6.77574C2.4 6.67974 2.46533 6.5656 2.57893 6.46267L2.66667 6.38347L2.66613 4.9488C2.67093 4.87227 2.80987 3.06667 5.06667 3.06667C5.7048 3.06667 6.24213 3.21414 6.66667 3.50507V4.76667C6.496 4.96107 6.4 5.20987 6.4 5.46667V6.53334C6.4 6.6144 6.40933 6.69414 6.42693 6.77147C6.43413 6.8024 6.44853 6.83067 6.4584 6.86054C6.47307 6.90534 6.4848 6.95147 6.50533 6.99387C6.5056 6.9944 6.50587 6.99467 6.50613 6.9952C6.5744 7.136 6.67387 7.26187 6.7992 7.3624C6.80053 7.36747 6.80213 7.372 6.80347 7.3768C6.81947 7.43787 6.83627 7.49867 6.8544 7.55814L6.876 7.62774C6.87973 7.64 6.88427 7.65254 6.88827 7.6648C6.8976 7.6936 6.90667 7.72214 6.91627 7.7504C6.93227 7.79707 6.94907 7.84534 6.96853 7.89787C6.9768 7.91974 6.98587 7.93947 6.9944 7.96107C7.01627 8.0168 7.03813 8.07067 7.06107 8.124C7.06667 8.1368 7.07147 8.15067 7.07707 8.1632L7.092 8.1968C7.09893 8.21227 7.10613 8.22614 7.11307 8.24134C7.1392 8.2984 7.1648 8.3536 7.19147 8.40694C7.19573 8.41547 7.19973 8.4248 7.204 8.43334C7.2208 8.46667 7.2376 8.49814 7.2544 8.53014C7.2832 8.58507 7.31147 8.6368 7.33973 8.68694C7.3536 8.71147 7.3672 8.73547 7.3808 8.75867C7.4192 8.82427 7.45573 8.88454 7.4912 8.94054C7.49893 8.95254 7.5064 8.96507 7.51387 8.97654C7.5784 9.07654 7.6344 9.1576 7.6808 9.2208C7.69307 9.2376 7.70373 9.252 7.71413 9.26614C7.72 9.27387 7.728 9.28507 7.73307 9.292V10.1744C7.73307 10.4325 7.59227 10.6693 7.36587 10.7931L6.66027 11.1779L6.53733 11.1669L6.4872 11.2723L4.98693 12.0907C4.2136 12.5131 3.73333 13.3221 3.73333 14.2032ZM15.4667 14.8H4.26667V14.2032C4.26667 13.5176 4.64053 12.8875 5.2424 12.5595L7.62133 11.2619C8.01947 11.0445 8.26667 10.6277 8.26667 10.1747V9.1032V9.10294L8.21493 9.04107L8.2048 9.02907C8.20427 9.02827 8.18773 9.00827 8.1608 8.97307C8.1592 8.97094 8.1576 8.9688 8.15573 8.96667C8.1416 8.94827 8.12507 8.92614 8.10613 8.89974C8.10587 8.8992 8.1056 8.89894 8.10533 8.8984C8.0656 8.8432 8.01573 8.77147 7.96027 8.68507C7.95893 8.6832 7.95787 8.68107 7.95653 8.6792C7.9304 8.6384 7.90267 8.59387 7.8744 8.54667C7.87227 8.5432 7.87013 8.53974 7.868 8.536C7.80773 8.43494 7.74373 8.32054 7.68 8.19387C7.68 8.19387 7.67973 8.1936 7.67973 8.19334C7.64587 8.12534 7.612 8.05387 7.57893 7.97947C7.5744 7.96907 7.5696 7.95894 7.56507 7.94854C7.5504 7.9152 7.53573 7.88027 7.5208 7.84427C7.51547 7.8312 7.51013 7.8176 7.5048 7.80427C7.49093 7.76934 7.4768 7.73414 7.46187 7.69387C7.43467 7.62134 7.40907 7.5456 7.38453 7.46747L7.36987 7.42C7.36827 7.41467 7.3664 7.40934 7.3648 7.40374C7.33973 7.31947 7.31573 7.23334 7.29547 7.1448L7.2712 7.0392L7.18027 6.98054C7.0256 6.8808 6.93333 6.7136 6.93333 6.53334V5.46667C6.93333 5.31707 6.9968 5.1776 7.112 5.07334L7.2 4.99414V3.33334V3.23894L7.1928 3.23334C7.18373 3.0408 7.1952 2.45067 7.6256 1.95974C8.06747 1.45547 8.8216 1.20001 9.86667 1.20001C10.908 1.20001 11.6605 1.45361 12.1029 1.95414C12.6221 2.54107 12.5363 3.29201 12.5357 3.29841L12.5333 4.99414L12.6213 5.0736C12.7365 5.1776 12.8 5.31707 12.8 5.46667V6.53334C12.8 6.76614 12.6475 6.96987 12.4208 7.03974L12.288 7.08054L12.2453 7.21254C12.0669 7.76747 11.8128 8.28 11.4896 8.736C11.4104 8.84827 11.3333 8.94774 11.2664 9.02374L11.2 9.09947V10.1995C11.2 10.6715 11.4621 11.0957 11.8843 11.3069L14.4317 12.5805C15.0701 12.8997 15.4667 13.5413 15.4667 14.2552V14.8Z" fill="#BEBEBF"/>
</svg>
