<?xml version="1.0" encoding="utf-8"?>
<!-- Generator: Adobe Illustrator 19.0.0, SVG Export Plug-In . SVG Version: 6.00 Build 0)  -->
<svg version="1.1" id="Layer_1" xmlns="http://www.w3.org/2000/svg" xmlns:xlink="http://www.w3.org/1999/xlink" x="0px" y="0px"
	 viewBox="0 0 96 96" style="enable-background:new 0 0 96 96;" xml:space="preserve">
<style type="text/css">
	.st0{fill:#B00000;}
	.st1{fill:#DD0000;}
	.st2{fill:#ffffff;}
</style>
<g id="XMLID_1_">
	<path id="XMLID_3_" class="st0" d="M48,21.5c-3-0.3-5.3,2-6.3,4.5c-8.1,14.5-16.1,29-24.2,43.5c-1.9,3.6,1.8,8.1,6.2,7.8H48h24.3
		c4.4,0.3,8.1-4.2,6.2-7.8C70.4,55,62.3,40.5,54.3,26C53.3,23.5,51,21.2,48,21.5z"/>
	<path id="XMLID_4_" class="st1" d="M48,18.7c-3-0.1-5.3,2.1-6.3,4.5c-8.1,14.5-16.1,29.1-24.2,43.6c-1.9,3.6,1.8,8.1,6.2,7.7
		c8.1,0,16.2,0,24.3,0c8.1,0,16.2,0,24.3,0c4.4,0.5,8.1-4,6.2-7.7c-8.1-14.5-16.1-29-24.2-43.6C53.3,20.9,51,18.6,48,18.7z"/>
	<path id="XMLID_7_" class="st2" d="M48,35.4c-1.7,0-3.1,1.2-3.1,2.8l1.5,19.5h3.1l1.5-19.5C51.1,36.7,49.7,35.4,48,35.4z M48,60.5
		c-1.7,0-3.1,1.2-3.1,2.8s1.4,2.8,3.1,2.8c1.7,0,3.1-1.2,3.1-2.8S49.7,60.5,48,60.5z"/>
</g>
</svg>
