<svg width="19" height="19" viewBox="0 0 19 19" fill="none" xmlns="http://www.w3.org/2000/svg">
<path d="M18.0084 7.24373V13.2583H16.825V7.98792V7.65115L16.5293 7.81231L14.946 8.67519L14.8417 8.73203V8.8508V13.4821L9.5 16.3972L4.15836 13.4821V8.8508V8.73203L4.05406 8.67519L1.20949 7.12493L9.5 2.60282L18.0084 7.24373ZM14.995 7.30058L15.3169 7.125L14.995 6.94942L9.59577 4.00442L9.5 3.95218L9.40423 4.00442L4.00509 6.94942L3.68319 7.125L4.00509 7.30058L9.40423 10.2456L9.5 10.2978L9.59577 10.2456L14.995 7.30058ZM13.5542 12.8343L13.6584 12.7774V12.6588V9.71375V9.37668L13.3625 9.53821L9.5 11.6471L5.63753 9.53821L5.34169 9.37668V9.71375V12.6588V12.7774L5.44584 12.8343L9.40415 14.9955L9.5 15.0479L9.59584 14.9955L13.5542 12.8343Z" fill="#BEBEBE" stroke="white" stroke-width="0.4"/>
</svg>
