<svg width="14" height="14" viewBox="0 0 14 14" fill="none" xmlns="http://www.w3.org/2000/svg">
<path d="M6.96289 2.68237C7.18428 2.33715 7.39152 1.96325 7.64021 1.62927C8.12653 0.979112 8.73443 0.521525 9.48878 0.366542C11.4814 -0.0433876 13.0312 1.341 13.5144 3.23373C13.8867 4.69328 13.657 6.05248 12.9345 7.3214C12.3742 8.30515 11.6537 9.13121 10.8821 9.89838C9.67322 11.0995 8.44188 12.2781 7.2209 13.4649C7.06512 13.6164 6.89622 13.63 6.75323 13.4886C5.26353 12.0162 3.69542 10.6458 2.29 9.06767C1.65792 8.35862 1.07075 7.59998 0.693229 6.67861C0.0138317 5.02572 0.083602 3.40963 1.00961 1.90359C2.22887 -0.0794211 4.98169 -0.421158 6.49314 1.88344C6.66619 2.14691 6.8154 2.43014 6.96289 2.68237ZM6.97152 12.7109C7.17634 12.5129 7.37356 12.3235 7.56802 12.1332C8.69574 11.0216 9.83418 9.92472 10.9464 8.7918C11.5653 8.16257 12.1152 7.45468 12.5217 6.62553C13.1538 5.33646 13.2153 4.02298 12.5994 2.70833C11.9946 1.41733 10.6997 0.771048 9.49776 1.13332C8.80351 1.34332 8.27436 1.82338 7.8958 2.48942C7.66024 2.904 7.49134 3.36662 7.29999 3.8122C7.2285 3.97842 7.13489 4.09001 6.96047 4.08109C6.79606 4.07257 6.70418 3.96486 6.64961 3.79903C6.45895 3.20738 6.20267 2.65486 5.84138 2.16977C4.82384 0.800882 3.14072 0.63195 1.96878 1.82842C1.02896 2.7897 0.773361 4.02956 1.00409 5.39729C1.16988 6.37872 1.64929 7.19315 2.24752 7.90026C2.90377 8.67517 3.59457 9.41677 4.30471 10.1328C5.17165 11.0092 6.07176 11.8442 6.97152 12.7109Z" fill="#BEBEBE"/>
</svg>
