<svg width="78" height="73" viewBox="0 0 78 73" fill="none" xmlns="http://www.w3.org/2000/svg">
<path d="M50.375 54.75C49.4768 54.75 48.75 55.4302 48.75 56.2709V66.9168C48.75 68.5935 47.2916 69.9584 45.5 69.9584H6.50005C4.70849 69.9584 3.2501 68.5935 3.2501 66.9168V6.08338C3.2501 4.40666 4.70849 3.04176 6.50005 3.04176H45.5C47.2916 3.04176 48.75 4.40666 48.75 6.08338V16.7293C48.75 17.5699 49.4768 18.2501 50.375 18.2501C51.2733 18.2501 52.0001 17.5699 52.0001 16.7293V6.08338C52 2.72823 49.0849 0 45.5 0H6.50005C2.9151 0 0 2.72823 0 6.08338V66.9168C0 70.2718 2.9151 73 6.50005 73H45.5C49.0849 73 52.0001 70.2718 52.0001 66.9166V56.2707C52 55.4302 51.2733 54.75 50.375 54.75Z" fill="#8E2694"/>
<path d="M77.4732 35.3786L57.9732 18.6495C57.3082 18.0822 56.2848 18.1252 55.6769 18.743C55.0707 19.3624 55.1151 20.3248 55.7769 20.8921L72.198 34.9791H21.1251C20.2268 34.9791 19.5 35.6594 19.5 36.5C19.5 37.3406 20.2268 38.0209 21.1251 38.0209H72.1981L55.777 52.1079C55.1152 52.6752 55.0709 53.6376 55.6771 54.257C55.9976 54.5838 56.4356 54.75 56.8753 54.75C57.2672 54.75 57.6607 54.6178 57.9733 54.3505L77.4733 37.6214C77.8096 37.3332 78 36.9263 78 36.5C78 36.0737 77.8096 35.6668 77.4732 35.3786Z" fill="#8E2694"/>
</svg>
